<mxfile host="app.diagrams.net" modified="2023-07-16T23:33:46.144Z" agent="Mozilla/5.0 (Windows NT 10.0; Win64; x64) AppleWebKit/537.36 (KHTML, like Gecko) Chrome/114.0.0.0 Safari/537.36" etag="VmfiGP3TfYDBh2paJmgE" version="21.6.2" type="device">
  <diagram name="Page-1" id="DArFy3xbRknujqlun963">
    <mxGraphModel dx="1434" dy="1860" grid="1" gridSize="10" guides="1" tooltips="1" connect="1" arrows="1" fold="1" page="1" pageScale="1" pageWidth="850" pageHeight="1100" math="0" shadow="0">
      <root>
        <mxCell id="0" />
        <mxCell id="1" parent="0" />
        <mxCell id="7bLsyX0ME-criX3Bns_B-72" value="Far Hearing" style="ellipse;whiteSpace=wrap;html=1;aspect=fixed;verticalAlign=top;fontStyle=1" parent="1" vertex="1">
          <mxGeometry x="840" y="-250" width="330" height="330" as="geometry" />
        </mxCell>
        <mxCell id="7bLsyX0ME-criX3Bns_B-25" value="Wait" style="rounded=1;whiteSpace=wrap;html=1;verticalAlign=top;" parent="1" vertex="1">
          <mxGeometry x="1070" y="130" width="870" height="350" as="geometry" />
        </mxCell>
        <mxCell id="7bLsyX0ME-criX3Bns_B-1" value="Patrol" style="rounded=1;whiteSpace=wrap;html=1;verticalAlign=top;" parent="1" vertex="1">
          <mxGeometry x="80" y="130" width="870" height="350" as="geometry" />
        </mxCell>
        <mxCell id="7bLsyX0ME-criX3Bns_B-7" style="edgeStyle=orthogonalEdgeStyle;rounded=0;orthogonalLoop=1;jettySize=auto;html=1;" parent="1" source="7bLsyX0ME-criX3Bns_B-5" target="7bLsyX0ME-criX3Bns_B-6" edge="1">
          <mxGeometry relative="1" as="geometry" />
        </mxCell>
        <mxCell id="7bLsyX0ME-criX3Bns_B-5" value="Get Next waypoint" style="rounded=1;whiteSpace=wrap;html=1;" parent="1" vertex="1">
          <mxGeometry x="520" y="200" width="120" height="60" as="geometry" />
        </mxCell>
        <mxCell id="7bLsyX0ME-criX3Bns_B-11" style="edgeStyle=orthogonalEdgeStyle;rounded=0;orthogonalLoop=1;jettySize=auto;html=1;" parent="1" source="7bLsyX0ME-criX3Bns_B-6" target="7bLsyX0ME-criX3Bns_B-8" edge="1">
          <mxGeometry relative="1" as="geometry" />
        </mxCell>
        <mxCell id="7bLsyX0ME-criX3Bns_B-6" value="Get Direction" style="rounded=1;whiteSpace=wrap;html=1;" parent="1" vertex="1">
          <mxGeometry x="780" y="200" width="120" height="60" as="geometry" />
        </mxCell>
        <mxCell id="7bLsyX0ME-criX3Bns_B-12" style="edgeStyle=orthogonalEdgeStyle;rounded=0;orthogonalLoop=1;jettySize=auto;html=1;" parent="1" source="7bLsyX0ME-criX3Bns_B-8" target="7bLsyX0ME-criX3Bns_B-9" edge="1">
          <mxGeometry relative="1" as="geometry" />
        </mxCell>
        <mxCell id="7bLsyX0ME-criX3Bns_B-8" value="Set Velocity" style="rounded=1;whiteSpace=wrap;html=1;" parent="1" vertex="1">
          <mxGeometry x="780" y="340" width="120" height="60" as="geometry" />
        </mxCell>
        <mxCell id="7bLsyX0ME-criX3Bns_B-17" style="edgeStyle=orthogonalEdgeStyle;rounded=0;orthogonalLoop=1;jettySize=auto;html=1;entryX=1;entryY=0.5;entryDx=0;entryDy=0;" parent="1" source="7bLsyX0ME-criX3Bns_B-9" target="7bLsyX0ME-criX3Bns_B-10" edge="1">
          <mxGeometry relative="1" as="geometry" />
        </mxCell>
        <mxCell id="7bLsyX0ME-criX3Bns_B-9" value="Move Towards Point" style="rounded=1;whiteSpace=wrap;html=1;" parent="1" vertex="1">
          <mxGeometry x="560" y="340" width="120" height="60" as="geometry" />
        </mxCell>
        <mxCell id="7bLsyX0ME-criX3Bns_B-14" style="edgeStyle=orthogonalEdgeStyle;rounded=0;orthogonalLoop=1;jettySize=auto;html=1;entryX=1;entryY=0.75;entryDx=0;entryDy=0;" parent="1" source="7bLsyX0ME-criX3Bns_B-10" target="7bLsyX0ME-criX3Bns_B-15" edge="1">
          <mxGeometry relative="1" as="geometry" />
        </mxCell>
        <mxCell id="7bLsyX0ME-criX3Bns_B-18" style="edgeStyle=orthogonalEdgeStyle;rounded=0;orthogonalLoop=1;jettySize=auto;html=1;entryX=0;entryY=0.25;entryDx=0;entryDy=0;" parent="1" source="7bLsyX0ME-criX3Bns_B-10" target="7bLsyX0ME-criX3Bns_B-5" edge="1">
          <mxGeometry relative="1" as="geometry">
            <Array as="points">
              <mxPoint x="440" y="215" />
            </Array>
          </mxGeometry>
        </mxCell>
        <mxCell id="7bLsyX0ME-criX3Bns_B-10" value="Am I at my Point?" style="rhombus;whiteSpace=wrap;html=1;" parent="1" vertex="1">
          <mxGeometry x="400" y="330" width="80" height="80" as="geometry" />
        </mxCell>
        <mxCell id="7bLsyX0ME-criX3Bns_B-13" value="Wait State" style="rounded=1;whiteSpace=wrap;html=1;fillColor=#d5e8d4;strokeColor=#82b366;fontStyle=1" parent="1" vertex="1">
          <mxGeometry x="130" y="210" width="120" height="60" as="geometry" />
        </mxCell>
        <mxCell id="7bLsyX0ME-criX3Bns_B-16" style="edgeStyle=orthogonalEdgeStyle;rounded=0;orthogonalLoop=1;jettySize=auto;html=1;entryX=0.5;entryY=1;entryDx=0;entryDy=0;" parent="1" source="7bLsyX0ME-criX3Bns_B-15" target="7bLsyX0ME-criX3Bns_B-13" edge="1">
          <mxGeometry relative="1" as="geometry" />
        </mxCell>
        <mxCell id="7bLsyX0ME-criX3Bns_B-15" value="Set Wait Timer" style="rounded=1;whiteSpace=wrap;html=1;" parent="1" vertex="1">
          <mxGeometry x="130" y="330" width="120" height="60" as="geometry" />
        </mxCell>
        <mxCell id="7bLsyX0ME-criX3Bns_B-19" value="Yes" style="text;html=1;strokeColor=none;fillColor=none;align=center;verticalAlign=middle;whiteSpace=wrap;rounded=0;" parent="1" vertex="1">
          <mxGeometry x="350" y="370" width="60" height="30" as="geometry" />
        </mxCell>
        <mxCell id="7bLsyX0ME-criX3Bns_B-20" value="No" style="text;html=1;strokeColor=none;fillColor=none;align=center;verticalAlign=middle;whiteSpace=wrap;rounded=0;" parent="1" vertex="1">
          <mxGeometry x="450" y="290" width="60" height="30" as="geometry" />
        </mxCell>
        <mxCell id="7bLsyX0ME-criX3Bns_B-23" style="edgeStyle=orthogonalEdgeStyle;rounded=0;orthogonalLoop=1;jettySize=auto;html=1;entryX=0;entryY=0.75;entryDx=0;entryDy=0;" parent="1" source="7bLsyX0ME-criX3Bns_B-21" target="7bLsyX0ME-criX3Bns_B-22" edge="1">
          <mxGeometry relative="1" as="geometry">
            <Array as="points">
              <mxPoint x="1590" y="247.5" />
            </Array>
          </mxGeometry>
        </mxCell>
        <mxCell id="7bLsyX0ME-criX3Bns_B-21" value="Stop Movement" style="rounded=1;whiteSpace=wrap;html=1;" parent="1" vertex="1">
          <mxGeometry x="1320" y="217.5" width="120" height="60" as="geometry" />
        </mxCell>
        <mxCell id="7bLsyX0ME-criX3Bns_B-24" style="edgeStyle=orthogonalEdgeStyle;rounded=0;orthogonalLoop=1;jettySize=auto;html=1;entryX=0.5;entryY=0;entryDx=0;entryDy=0;" parent="1" source="7bLsyX0ME-criX3Bns_B-22" target="7bLsyX0ME-criX3Bns_B-21" edge="1">
          <mxGeometry relative="1" as="geometry">
            <Array as="points">
              <mxPoint x="1640" y="197.5" />
              <mxPoint x="1380" y="197.5" />
            </Array>
          </mxGeometry>
        </mxCell>
        <mxCell id="7bLsyX0ME-criX3Bns_B-22" value="Look Around" style="rounded=1;whiteSpace=wrap;html=1;" parent="1" vertex="1">
          <mxGeometry x="1590" y="222.5" width="120" height="60" as="geometry" />
        </mxCell>
        <mxCell id="7bLsyX0ME-criX3Bns_B-28" style="edgeStyle=orthogonalEdgeStyle;rounded=0;orthogonalLoop=1;jettySize=auto;html=1;" parent="1" source="7bLsyX0ME-criX3Bns_B-26" target="7bLsyX0ME-criX3Bns_B-27" edge="1">
          <mxGeometry relative="1" as="geometry" />
        </mxCell>
        <mxCell id="7bLsyX0ME-criX3Bns_B-26" value="Wait Time Has Finished" style="ellipse;whiteSpace=wrap;html=1;" parent="1" vertex="1">
          <mxGeometry x="1130" y="320" width="120" height="80" as="geometry" />
        </mxCell>
        <mxCell id="7bLsyX0ME-criX3Bns_B-30" style="edgeStyle=orthogonalEdgeStyle;rounded=0;orthogonalLoop=1;jettySize=auto;html=1;" parent="1" source="7bLsyX0ME-criX3Bns_B-27" target="7bLsyX0ME-criX3Bns_B-29" edge="1">
          <mxGeometry relative="1" as="geometry" />
        </mxCell>
        <mxCell id="7bLsyX0ME-criX3Bns_B-27" value="Set Next Wait Point" style="rounded=1;whiteSpace=wrap;html=1;" parent="1" vertex="1">
          <mxGeometry x="1340" y="330" width="120" height="60" as="geometry" />
        </mxCell>
        <mxCell id="7bLsyX0ME-criX3Bns_B-29" value="Patrol State" style="rounded=1;whiteSpace=wrap;html=1;fillColor=#d5e8d4;strokeColor=#82b366;fontStyle=1" parent="1" vertex="1">
          <mxGeometry x="1620" y="330" width="120" height="60" as="geometry" />
        </mxCell>
        <mxCell id="7bLsyX0ME-criX3Bns_B-31" value="Hunting" style="rounded=1;whiteSpace=wrap;html=1;verticalAlign=top;" parent="1" vertex="1">
          <mxGeometry x="80" y="600" width="870" height="470" as="geometry" />
        </mxCell>
        <mxCell id="7bLsyX0ME-criX3Bns_B-32" value="Chase" style="rounded=1;whiteSpace=wrap;html=1;verticalAlign=top;" parent="1" vertex="1">
          <mxGeometry x="1080" y="600" width="870" height="470" as="geometry" />
        </mxCell>
        <mxCell id="7bLsyX0ME-criX3Bns_B-37" style="edgeStyle=orthogonalEdgeStyle;rounded=0;orthogonalLoop=1;jettySize=auto;html=1;" parent="1" source="7bLsyX0ME-criX3Bns_B-33" target="7bLsyX0ME-criX3Bns_B-34" edge="1">
          <mxGeometry relative="1" as="geometry" />
        </mxCell>
        <mxCell id="7bLsyX0ME-criX3Bns_B-33" value="Ray Cast&amp;nbsp; To Player" style="rounded=1;whiteSpace=wrap;html=1;" parent="1" vertex="1">
          <mxGeometry x="315.5" y="695" width="120" height="60" as="geometry" />
        </mxCell>
        <mxCell id="7bLsyX0ME-criX3Bns_B-38" style="edgeStyle=orthogonalEdgeStyle;rounded=0;orthogonalLoop=1;jettySize=auto;html=1;" parent="1" source="7bLsyX0ME-criX3Bns_B-34" target="7bLsyX0ME-criX3Bns_B-35" edge="1">
          <mxGeometry relative="1" as="geometry" />
        </mxCell>
        <mxCell id="7bLsyX0ME-criX3Bns_B-34" value="Move Towards The Player" style="rounded=1;whiteSpace=wrap;html=1;" parent="1" vertex="1">
          <mxGeometry x="545.5" y="695" width="120" height="60" as="geometry" />
        </mxCell>
        <mxCell id="7bLsyX0ME-criX3Bns_B-39" style="edgeStyle=orthogonalEdgeStyle;rounded=0;orthogonalLoop=1;jettySize=auto;html=1;" parent="1" source="7bLsyX0ME-criX3Bns_B-35" target="7bLsyX0ME-criX3Bns_B-36" edge="1">
          <mxGeometry relative="1" as="geometry" />
        </mxCell>
        <mxCell id="7bLsyX0ME-criX3Bns_B-35" value="Get Within A Distance" style="rounded=1;whiteSpace=wrap;html=1;" parent="1" vertex="1">
          <mxGeometry x="794.5" y="695" width="120" height="60" as="geometry" />
        </mxCell>
        <mxCell id="7bLsyX0ME-criX3Bns_B-41" style="edgeStyle=orthogonalEdgeStyle;rounded=0;orthogonalLoop=1;jettySize=auto;html=1;" parent="1" source="7bLsyX0ME-criX3Bns_B-36" target="7bLsyX0ME-criX3Bns_B-40" edge="1">
          <mxGeometry relative="1" as="geometry" />
        </mxCell>
        <mxCell id="7bLsyX0ME-criX3Bns_B-36" value="Look Around For The Player" style="rounded=1;whiteSpace=wrap;html=1;" parent="1" vertex="1">
          <mxGeometry x="794.5" y="805" width="120" height="60" as="geometry" />
        </mxCell>
        <mxCell id="7bLsyX0ME-criX3Bns_B-47" style="edgeStyle=orthogonalEdgeStyle;rounded=0;orthogonalLoop=1;jettySize=auto;html=1;" parent="1" source="7bLsyX0ME-criX3Bns_B-40" target="7bLsyX0ME-criX3Bns_B-42" edge="1">
          <mxGeometry relative="1" as="geometry" />
        </mxCell>
        <mxCell id="7bLsyX0ME-criX3Bns_B-40" value="Look Around The Area For The Player" style="rounded=1;whiteSpace=wrap;html=1;" parent="1" vertex="1">
          <mxGeometry x="585.5" y="805" width="120" height="60" as="geometry" />
        </mxCell>
        <mxCell id="7bLsyX0ME-criX3Bns_B-45" style="edgeStyle=orthogonalEdgeStyle;rounded=0;orthogonalLoop=1;jettySize=auto;html=1;exitX=0.5;exitY=1;exitDx=0;exitDy=0;entryX=0.5;entryY=0;entryDx=0;entryDy=0;" parent="1" source="7bLsyX0ME-criX3Bns_B-42" target="7bLsyX0ME-criX3Bns_B-44" edge="1">
          <mxGeometry relative="1" as="geometry" />
        </mxCell>
        <mxCell id="97WzLm5EaoKwyrY1AI0C-2" style="edgeStyle=orthogonalEdgeStyle;rounded=0;orthogonalLoop=1;jettySize=auto;html=1;" edge="1" parent="1" source="7bLsyX0ME-criX3Bns_B-42" target="97WzLm5EaoKwyrY1AI0C-1">
          <mxGeometry relative="1" as="geometry" />
        </mxCell>
        <mxCell id="7bLsyX0ME-criX3Bns_B-42" value="Find Player?" style="rhombus;whiteSpace=wrap;html=1;" parent="1" vertex="1">
          <mxGeometry x="385.5" y="805" width="80" height="80" as="geometry" />
        </mxCell>
        <mxCell id="7bLsyX0ME-criX3Bns_B-44" value="Patrol State" style="rounded=1;whiteSpace=wrap;html=1;fillColor=#d5e8d4;strokeColor=#82b366;fontStyle=1" parent="1" vertex="1">
          <mxGeometry x="365.5" y="915" width="120" height="60" as="geometry" />
        </mxCell>
        <mxCell id="7bLsyX0ME-criX3Bns_B-46" value="No" style="text;html=1;strokeColor=none;fillColor=none;align=center;verticalAlign=middle;whiteSpace=wrap;rounded=0;" parent="1" vertex="1">
          <mxGeometry x="435.5" y="885" width="60" height="30" as="geometry" />
        </mxCell>
        <mxCell id="7bLsyX0ME-criX3Bns_B-48" value="Chase State" style="rounded=1;whiteSpace=wrap;html=1;fillColor=#d5e8d4;strokeColor=#82b366;fontStyle=1" parent="1" vertex="1">
          <mxGeometry x="100" y="855" width="120" height="60" as="geometry" />
        </mxCell>
        <mxCell id="7bLsyX0ME-criX3Bns_B-50" value="Yes" style="text;html=1;strokeColor=none;fillColor=none;align=center;verticalAlign=middle;whiteSpace=wrap;rounded=0;" parent="1" vertex="1">
          <mxGeometry x="415.5" y="775" width="60" height="30" as="geometry" />
        </mxCell>
        <mxCell id="7bLsyX0ME-criX3Bns_B-53" style="edgeStyle=orthogonalEdgeStyle;rounded=0;orthogonalLoop=1;jettySize=auto;html=1;" parent="1" source="7bLsyX0ME-criX3Bns_B-51" target="7bLsyX0ME-criX3Bns_B-52" edge="1">
          <mxGeometry relative="1" as="geometry" />
        </mxCell>
        <mxCell id="7bLsyX0ME-criX3Bns_B-51" value="Ray Cast&amp;nbsp; To Player" style="rounded=1;whiteSpace=wrap;html=1;" parent="1" vertex="1">
          <mxGeometry x="1120" y="660" width="120" height="60" as="geometry" />
        </mxCell>
        <mxCell id="7bLsyX0ME-criX3Bns_B-56" style="edgeStyle=orthogonalEdgeStyle;rounded=0;orthogonalLoop=1;jettySize=auto;html=1;entryX=0;entryY=0.5;entryDx=0;entryDy=0;" parent="1" source="7bLsyX0ME-criX3Bns_B-52" target="7bLsyX0ME-criX3Bns_B-54" edge="1">
          <mxGeometry relative="1" as="geometry" />
        </mxCell>
        <mxCell id="7bLsyX0ME-criX3Bns_B-52" value="Set Destination to Player" style="rounded=1;whiteSpace=wrap;html=1;" parent="1" vertex="1">
          <mxGeometry x="1330" y="660" width="120" height="60" as="geometry" />
        </mxCell>
        <mxCell id="7bLsyX0ME-criX3Bns_B-57" style="edgeStyle=orthogonalEdgeStyle;rounded=0;orthogonalLoop=1;jettySize=auto;html=1;entryX=0;entryY=0.5;entryDx=0;entryDy=0;" parent="1" source="7bLsyX0ME-criX3Bns_B-54" target="7bLsyX0ME-criX3Bns_B-55" edge="1">
          <mxGeometry relative="1" as="geometry" />
        </mxCell>
        <mxCell id="7bLsyX0ME-criX3Bns_B-54" value="Change Velocity To Sprint" style="rounded=1;whiteSpace=wrap;html=1;" parent="1" vertex="1">
          <mxGeometry x="1530" y="660" width="120" height="60" as="geometry" />
        </mxCell>
        <mxCell id="7bLsyX0ME-criX3Bns_B-59" style="edgeStyle=orthogonalEdgeStyle;rounded=0;orthogonalLoop=1;jettySize=auto;html=1;entryX=1;entryY=0.5;entryDx=0;entryDy=0;" parent="1" source="7bLsyX0ME-criX3Bns_B-55" target="7bLsyX0ME-criX3Bns_B-58" edge="1">
          <mxGeometry relative="1" as="geometry">
            <Array as="points">
              <mxPoint x="1800" y="820" />
            </Array>
          </mxGeometry>
        </mxCell>
        <mxCell id="7bLsyX0ME-criX3Bns_B-55" value="Chase After Player" style="rounded=1;whiteSpace=wrap;html=1;" parent="1" vertex="1">
          <mxGeometry x="1730" y="660" width="120" height="60" as="geometry" />
        </mxCell>
        <mxCell id="7bLsyX0ME-criX3Bns_B-61" style="edgeStyle=orthogonalEdgeStyle;rounded=0;orthogonalLoop=1;jettySize=auto;html=1;entryX=1;entryY=0.5;entryDx=0;entryDy=0;" parent="1" source="7bLsyX0ME-criX3Bns_B-58" target="7bLsyX0ME-criX3Bns_B-60" edge="1">
          <mxGeometry relative="1" as="geometry" />
        </mxCell>
        <mxCell id="7bLsyX0ME-criX3Bns_B-63" style="edgeStyle=orthogonalEdgeStyle;rounded=0;orthogonalLoop=1;jettySize=auto;html=1;entryX=0.5;entryY=0;entryDx=0;entryDy=0;" parent="1" source="7bLsyX0ME-criX3Bns_B-58" target="7bLsyX0ME-criX3Bns_B-62" edge="1">
          <mxGeometry relative="1" as="geometry" />
        </mxCell>
        <mxCell id="7bLsyX0ME-criX3Bns_B-58" value="Catch Player?" style="rhombus;whiteSpace=wrap;html=1;" parent="1" vertex="1">
          <mxGeometry x="1590" y="780" width="80" height="80" as="geometry" />
        </mxCell>
        <mxCell id="7bLsyX0ME-criX3Bns_B-60" value="Attack" style="rounded=1;whiteSpace=wrap;html=1;" parent="1" vertex="1">
          <mxGeometry x="1400" y="770" width="120" height="60" as="geometry" />
        </mxCell>
        <mxCell id="7bLsyX0ME-criX3Bns_B-67" style="edgeStyle=orthogonalEdgeStyle;rounded=0;orthogonalLoop=1;jettySize=auto;html=1;" parent="1" source="7bLsyX0ME-criX3Bns_B-62" target="7bLsyX0ME-criX3Bns_B-66" edge="1">
          <mxGeometry relative="1" as="geometry" />
        </mxCell>
        <mxCell id="7bLsyX0ME-criX3Bns_B-69" style="edgeStyle=orthogonalEdgeStyle;rounded=0;orthogonalLoop=1;jettySize=auto;html=1;" parent="1" source="7bLsyX0ME-criX3Bns_B-62" target="7bLsyX0ME-criX3Bns_B-52" edge="1">
          <mxGeometry relative="1" as="geometry">
            <Array as="points">
              <mxPoint x="1340" y="940" />
            </Array>
          </mxGeometry>
        </mxCell>
        <mxCell id="7bLsyX0ME-criX3Bns_B-62" value="Has Player Left My Range?" style="rhombus;whiteSpace=wrap;html=1;" parent="1" vertex="1">
          <mxGeometry x="1590" y="900" width="80" height="80" as="geometry" />
        </mxCell>
        <mxCell id="7bLsyX0ME-criX3Bns_B-64" value="Yes" style="text;html=1;strokeColor=none;fillColor=none;align=center;verticalAlign=middle;whiteSpace=wrap;rounded=0;" parent="1" vertex="1">
          <mxGeometry x="1520" y="760" width="60" height="30" as="geometry" />
        </mxCell>
        <mxCell id="7bLsyX0ME-criX3Bns_B-65" value="No" style="text;html=1;strokeColor=none;fillColor=none;align=center;verticalAlign=middle;whiteSpace=wrap;rounded=0;" parent="1" vertex="1">
          <mxGeometry x="1640" y="860" width="60" height="30" as="geometry" />
        </mxCell>
        <mxCell id="7bLsyX0ME-criX3Bns_B-66" value="Patrol State" style="rounded=1;whiteSpace=wrap;html=1;fillColor=#d5e8d4;strokeColor=#82b366;fontStyle=1" parent="1" vertex="1">
          <mxGeometry x="1740" y="980" width="120" height="60" as="geometry" />
        </mxCell>
        <mxCell id="7bLsyX0ME-criX3Bns_B-68" value="Yes" style="text;html=1;strokeColor=none;fillColor=none;align=center;verticalAlign=middle;whiteSpace=wrap;rounded=0;" parent="1" vertex="1">
          <mxGeometry x="1690" y="940" width="60" height="30" as="geometry" />
        </mxCell>
        <mxCell id="7bLsyX0ME-criX3Bns_B-70" value="No" style="text;html=1;strokeColor=none;fillColor=none;align=center;verticalAlign=middle;whiteSpace=wrap;rounded=0;" parent="1" vertex="1">
          <mxGeometry x="1530" y="910" width="60" height="30" as="geometry" />
        </mxCell>
        <mxCell id="7bLsyX0ME-criX3Bns_B-71" value="Close Hearing" style="ellipse;whiteSpace=wrap;html=1;aspect=fixed;fontStyle=1" parent="1" vertex="1">
          <mxGeometry x="923.75" y="-166.25" width="162.5" height="162.5" as="geometry" />
        </mxCell>
        <mxCell id="7bLsyX0ME-criX3Bns_B-74" value="Chase State" style="rounded=1;whiteSpace=wrap;html=1;fillColor=#d5e8d4;strokeColor=#82b366;fontStyle=0" parent="1" vertex="1">
          <mxGeometry x="960" y="-63.75" width="90" height="33.75" as="geometry" />
        </mxCell>
        <mxCell id="7bLsyX0ME-criX3Bns_B-75" value="Hunting State" style="rounded=1;whiteSpace=wrap;html=1;fillColor=#d5e8d4;strokeColor=#82b366;fontStyle=0" parent="1" vertex="1">
          <mxGeometry x="957.5" y="20" width="95" height="40" as="geometry" />
        </mxCell>
        <mxCell id="7bLsyX0ME-criX3Bns_B-76" value="Far Sight" style="triangle;whiteSpace=wrap;html=1;" parent="1" vertex="1">
          <mxGeometry x="1250" y="-225" width="280" height="305" as="geometry" />
        </mxCell>
        <mxCell id="7bLsyX0ME-criX3Bns_B-77" value="Hunting State" style="rounded=1;whiteSpace=wrap;html=1;fillColor=#d5e8d4;strokeColor=#82b366;fontStyle=0" parent="1" vertex="1">
          <mxGeometry x="1260" y="-63.75" width="95" height="40" as="geometry" />
        </mxCell>
        <mxCell id="7bLsyX0ME-criX3Bns_B-78" value="Close Sight" style="triangle;whiteSpace=wrap;html=1;" parent="1" vertex="1">
          <mxGeometry x="1460" y="-112.5" width="70" height="80" as="geometry" />
        </mxCell>
        <mxCell id="7bLsyX0ME-criX3Bns_B-79" value="Chase State" style="rounded=1;whiteSpace=wrap;html=1;fillColor=#d5e8d4;strokeColor=#82b366;fontStyle=0" parent="1" vertex="1">
          <mxGeometry x="1470" y="-60.63" width="90" height="33.75" as="geometry" />
        </mxCell>
        <mxCell id="97WzLm5EaoKwyrY1AI0C-3" style="edgeStyle=orthogonalEdgeStyle;rounded=0;orthogonalLoop=1;jettySize=auto;html=1;" edge="1" parent="1" source="97WzLm5EaoKwyrY1AI0C-1" target="7bLsyX0ME-criX3Bns_B-48">
          <mxGeometry relative="1" as="geometry" />
        </mxCell>
        <mxCell id="97WzLm5EaoKwyrY1AI0C-7" style="edgeStyle=orthogonalEdgeStyle;rounded=0;orthogonalLoop=1;jettySize=auto;html=1;entryX=0;entryY=0.75;entryDx=0;entryDy=0;" edge="1" parent="1" source="97WzLm5EaoKwyrY1AI0C-1" target="7bLsyX0ME-criX3Bns_B-44">
          <mxGeometry relative="1" as="geometry">
            <Array as="points">
              <mxPoint x="280" y="960" />
            </Array>
          </mxGeometry>
        </mxCell>
        <mxCell id="97WzLm5EaoKwyrY1AI0C-1" value="Is Light Above Parameter?" style="rhombus;whiteSpace=wrap;html=1;" vertex="1" parent="1">
          <mxGeometry x="240" y="750" width="80" height="80" as="geometry" />
        </mxCell>
        <mxCell id="97WzLm5EaoKwyrY1AI0C-4" value="Yes" style="text;html=1;strokeColor=none;fillColor=none;align=center;verticalAlign=middle;whiteSpace=wrap;rounded=0;" vertex="1" parent="1">
          <mxGeometry x="190" y="765" width="60" height="30" as="geometry" />
        </mxCell>
        <mxCell id="97WzLm5EaoKwyrY1AI0C-6" value="No" style="text;html=1;strokeColor=none;fillColor=none;align=center;verticalAlign=middle;whiteSpace=wrap;rounded=0;" vertex="1" parent="1">
          <mxGeometry x="260" y="825" width="60" height="30" as="geometry" />
        </mxCell>
      </root>
    </mxGraphModel>
  </diagram>
</mxfile>
